<?xml version="1.0" encoding="UTF-8"?>
<svg version="1.1" viewBox="0 0 49 11" xmlns="http://www.w3.org/2000/svg">
<title>elements/guanna</title>
<desc>Created with Sketch.</desc>
<g fill="none" fill-rule="evenodd">
<g transform="translate(-1138 -314)" fill="#fff">
<g transform="translate(1138 314)">
<path d="m3.2117 0.44009c0.8255 0 1.5062 0.28864 1.9189 0.68068 0.048117 0.04796 0.08255 0.04796 0.10992 0l0.14435-0.45408c0.020748-0.055 0.062243-0.08228 0.13729-0.08228h1.3415c0.048117 0 0.068865 0.02068 0.068865 0.06864v6.8407c0 1.9043-1.4855 3.142-3.4388 3.142-1.8015 0-3.1634-1.0793-3.1634-2.3241 0-0.04796 0.020748-0.06864 0.068423-0.06864h1.5199c0.034432 0 0.062243 0.02068 0.08255 0.06864 0.041496 0.19976 0.41981 0.77704 1.4925 0.77704 1.3067 0 1.7128-0.77 1.7468-1.595v-0.29568c0-0.055-0.075486-0.07568-0.10992-0.04092-0.2269 0.2266-0.92173 0.68728-1.9189 0.68728-1.7605 0-3.2115-1.4986-3.2115-3.6986 0-2.1934 1.451-3.7057 3.2115-3.7057zm41.447-3.08e-4c0.97647 0 1.7468 0.22704 2.3176 0.67408 0.56416 0.45364 0.8458 1.1207 0.8458 2.0007v2.7359c0 0.28204 0.20659 0.44704 0.50942 0.44704h0.21277c0.048117 0 0.068865 0.02068 0.068865 0.06864v1.272c0 0.04796-0.020748 0.06864-0.068865 0.06864h-0.7222c-0.73588 0-1.1208-0.2816-1.3755-0.67364-0.041054-0.0484-0.082108-0.0484-0.13067 0-0.18541 0.18568-0.46086 0.37136-0.82505 0.54296-0.36463 0.17908-0.83212 0.2684-1.3963 0.2684-1.9185 0-2.7917-0.99-2.7917-2.262 0-1.2236 1.0246-2.2823 3.0874-2.2823h1.3963c0.28208 0 0.35095-0.165 0.35095-0.30976 0-0.30228-0.1033-0.9966-1.4788-0.9966-1.059 0-1.3892 0.43296-1.4236 0.92796 0 0.0484-0.020748 0.06864-0.068865 0.06864h-1.5406c-0.047676 0-0.068423-0.02024-0.068423-0.06864 0-1.657 1.451-2.482 3.1016-2.482zm-34.22 0.14472c0.048117 0 0.068865 0.02068 0.068865 0.06864v3.843c0 0.84568 0.43968 1.8014 1.568 1.8014 1.093 0 1.5473-0.81136 1.5473-1.6566v-3.9877c0-0.04796 0.020748-0.06864 0.068865-0.06864h1.5609c0.034432 0 0.05518 0.02068 0.062243 0.06864v6.985c0 0.04796-0.027811 0.06864-0.075928 0.06864h-1.3345c-0.06136 0-0.10992-0.02728-0.14435-0.08228l-0.13729-0.42636c-0.034432-0.055-0.1033-0.08932-0.15848-0.01364-0.15141 0.15796-0.37125 0.30932-0.65289 0.4466-0.28208 0.14432-0.57785 0.2134-0.88023 0.2134-2.3454 0-3.1157-1.5814-3.1157-3.3484v-3.843c0-0.04796 0.027369-0.06864 0.075928-0.06864h1.5473zm9.7429-0.14472c0.97647 0 1.7468 0.22704 2.3176 0.67408 0.56416 0.45364 0.8458 1.1207 0.8458 2.0007v2.7359c0 0.28204 0.20659 0.44704 0.50942 0.44704h0.21277c0.048117 0 0.068865 0.02068 0.068865 0.06864v1.272c0 0.04796-0.020748 0.06864-0.068865 0.06864h-0.7222c-0.73588 0-1.1208-0.2816-1.3755-0.67364-0.041054-0.0484-0.082108-0.0484-0.13067 0-0.18541 0.18568-0.46086 0.37136-0.82505 0.54296-0.36463 0.17908-0.83212 0.2684-1.3963 0.2684-1.9185 0-2.7917-0.99-2.7917-2.262 0-1.2236 1.0246-2.2823 3.0874-2.2823h1.3963c0.28208 0 0.35095-0.165 0.35095-0.30976 0-0.30228-0.1033-0.9966-1.4788-0.9966-1.059 0-1.3892 0.43296-1.4236 0.92796 0 0.0484-0.020748 0.06864-0.068865 0.06864h-1.5406c-0.047676 0-0.068423-0.02024-0.068423-0.06864 0-1.657 1.451-2.482 3.1016-2.482zm8.0515 0c0.97647 0 1.7468 0.22704 2.3176 0.67408 0.56416 0.45364 0.8458 1.1207 0.8458 2.0007v2.7359c0 0.28204 0.20659 0.44704 0.50942 0.44704h0.21277c0.048117 0 0.068865 0.02068 0.068865 0.06864v1.272c0 0.04796-0.020748 0.06864-0.068865 0.06864h-0.7222c-0.73588 0-1.1208-0.2816-1.3755-0.67364-0.041054-0.0484-0.082108-0.0484-0.13067 0-0.18541 0.18568-0.46086 0.37136-0.82505 0.54296-0.36463 0.17908-0.83212 0.2684-1.3963 0.2684-1.9185 0-2.7917-0.99-2.7917-2.262 0-1.2236 1.0246-2.2823 3.0874-2.2823h1.3963c0.28208 0 0.35095-0.165 0.35095-0.30976 0-0.30228-0.1033-0.9966-1.4788-0.9966-1.059 0-1.3892 0.43296-1.4236 0.92796 0 0.0484-0.020748 0.06864-0.068865 0.06864h-1.5406c-0.047676 0-0.068424-0.02024-0.068424-0.06864 0-1.657 1.451-2.482 3.1016-2.482zm8.7257 3.96e-4c2.2213 0 2.9709 1.5809 2.9709 3.355v3.843c0 0.04796-0.020748 0.06864-0.068865 0.06864h-1.5473c-0.048117 0-0.068865-0.02068-0.075928-0.06864v-3.843c0-0.84568-0.44012-1.8014-1.5609-1.8014-1.1005 0-1.5473 0.81136-1.5473 1.6566v3.9877c0 0.04796-0.027369 0.06864-0.075928 0.06864h-1.5473c-0.048117 0-0.068865-0.02068-0.068865-0.06864v-6.985c0-0.04796 0.020748-0.06864 0.068865-0.06864h1.3407c0.075928 0 0.11742 0.02068 0.12449 0.06864l0.15804 0.43296c0.020306 0.055 0.096234 0.08932 0.15097 0.01408 0.26177-0.33704 1.0727-0.66 1.6784-0.66zm9.1032 4.2694h-1.6024c-1.2581 0-1.4647 0.48796-1.4647 0.87296 0 0.30272 0.23352 0.715 1.1001 0.715 1.4585 0 2.043-0.81796 2.043-1.5193 0-0.0484-0.027811-0.06864-0.075928-0.06864zm-42.568-2.7158c-0.59859 0-1.0524 0.19932-1.3482 0.5984-0.30283 0.39864-0.45336 0.91432-0.45336 1.5536s0.15053 1.155 0.45336 1.5536c0.29577 0.39864 0.74957 0.59796 1.3482 0.59796 1.1826 0 1.7468-0.74932 1.7468-2.1516 0-0.63932-0.14435-1.155-0.42643-1.5536-0.2887-0.39908-0.72882-0.5984-1.3204-0.5984zm18.09 2.7158h-1.6024c-1.2581 0-1.4647 0.48796-1.4647 0.87296 0 0.30272 0.23352 0.715 1.1001 0.715 1.4585 0 2.043-0.81796 2.043-1.5193 0-0.0484-0.027811-0.06864-0.075928-0.06864zm8.0515 0h-1.6024c-1.2581 0-1.4647 0.48796-1.4647 0.87296 0 0.30272 0.23352 0.715 1.1001 0.715 1.4585 0 2.043-0.81796 2.043-1.5193 0-0.0484-0.027811-0.06864-0.075928-0.06864z"/>
</g>
</g>
</g>
</svg>
