<?xml version="1.0" encoding="UTF-8"?>
<svg width="49px" height="11px" viewBox="0 0 49 11" version="1.1" xmlns="http://www.w3.org/2000/svg" xmlns:xlink="http://www.w3.org/1999/xlink">
    <!-- Generator: Sketch 63 (92445) - https://sketch.com -->
    <title>elements/guanna</title>
    <desc>Created with Sketch.</desc>
    <g id="Symbols" stroke="none" stroke-width="1" fill="none" fill-rule="evenodd">
        <g id="Menu/Footer-(1)" transform="translate(-1138.000000, -314.000000)" fill="#141414">
            <g id="elements/guanna" transform="translate(1138.000000, 314.000000)">
                <path d="M3.21166306,0.440088 C4.03715856,0.440088 4.71786126,0.728728 5.13060901,1.120768 C5.17872613,1.168728 5.21315856,1.168728 5.24052793,1.120768 L5.38487928,0.666688 C5.40562703,0.611688 5.44712252,0.584408 5.52216757,0.584408 L6.86370811,0.584408 C6.91182523,0.584408 6.93257297,0.605088 6.93257297,0.653048 L6.93257297,7.493728 C6.93257297,9.398048 5.44712252,10.635768 3.49374414,10.635768 C1.69222162,10.635768 0.330374775,9.556448 0.330374775,8.311688 C0.330374775,8.263728 0.351122523,8.243048 0.398798198,8.243048 L1.91868108,8.243048 C1.95311351,8.243048 1.98092432,8.263728 2.00123063,8.311688 C2.04272613,8.511448 2.42104144,9.088728 3.49374414,9.088728 C4.80041081,9.088728 5.20653694,8.318728 5.24052793,7.493728 L5.24052793,7.198048 C5.24052793,7.143048 5.16504144,7.122368 5.13060901,7.157128 C4.90370811,7.383728 4.20887928,7.844408 3.21166306,7.844408 C1.45119459,7.844408 0.000176576576,6.345768 0.000176576576,4.145768 C0.000176576576,1.952368 1.45119459,0.440088 3.21166306,0.440088 Z M44.6587324,0.43978 C45.6352009,0.43978 46.4055162,0.66682 46.9763,1.11386 C47.5404622,1.5675 47.8221018,2.23454 47.8221018,3.11454 L47.8221018,5.85046 C47.8221018,6.1325 48.0286964,6.2975 48.3315252,6.2975 L48.5443,6.2975 C48.5924171,6.2975 48.6131649,6.31818 48.6131649,6.36614 L48.6131649,7.63818 C48.6131649,7.68614 48.5924171,7.70682 48.5443,7.70682 L47.8221018,7.70682 C47.0862189,7.70682 46.701282,7.42522 46.4465703,7.03318 C46.4055162,6.98478 46.3644622,6.98478 46.3159036,7.03318 C46.1304982,7.21886 45.8550387,7.40454 45.4908495,7.57614 C45.1262189,7.75522 44.6587324,7.84454 44.0945703,7.84454 C42.1760658,7.84454 41.3028946,6.85454 41.3028946,5.5825 C41.3028946,4.35886 42.3274802,3.30022 44.390336,3.30022 L45.7866153,3.30022 C46.0686964,3.30022 46.1375613,3.13522 46.1375613,2.99046 C46.1375613,2.68818 46.034264,1.99386 44.6587324,1.99386 C43.5997144,1.99386 43.2695162,2.42682 43.2350838,2.92182 C43.2350838,2.97022 43.214336,2.99046 43.1662189,2.99046 L41.6255883,2.99046 C41.5779126,2.99046 41.5571649,2.97022 41.5571649,2.92182 C41.5571649,1.26478 43.0081829,0.43978 44.6587324,0.43978 Z M10.438236,0.584496 C10.4863532,0.584496 10.5071009,0.605176 10.5071009,0.653136 L10.5071009,4.496096 C10.5071009,5.341776 10.9467766,6.297456 12.0751009,6.297456 C13.1681099,6.297456 13.6223532,5.486096 13.6223532,4.640856 L13.6223532,0.653136 C13.6223532,0.605176 13.6431009,0.584496 13.691218,0.584496 L15.252155,0.584496 C15.2865874,0.584496 15.3073351,0.605176 15.3143982,0.653136 L15.3143982,7.638136 C15.3143982,7.686096 15.2865874,7.706776 15.2384703,7.706776 L13.9039928,7.706776 C13.8426324,7.706776 13.7940739,7.679496 13.7596414,7.624496 L13.6223532,7.198136 C13.5879207,7.143136 13.5190559,7.108816 13.4638757,7.184496 C13.3124613,7.342456 13.0926234,7.493816 12.8109838,7.631096 C12.5289027,7.775416 12.2331369,7.844496 11.9307495,7.844496 C9.58537117,7.844496 8.81505586,6.263136 8.81505586,4.496096 L8.81505586,0.653136 C8.81505586,0.605176 8.84242523,0.584496 8.89098378,0.584496 L10.438236,0.584496 Z M20.1811577,0.43978 C21.1576261,0.43978 21.9279414,0.66682 22.4987252,1.11386 C23.0628874,1.5675 23.344527,2.23454 23.344527,3.11454 L23.344527,5.85046 C23.344527,6.1325 23.5511216,6.2975 23.8539505,6.2975 L24.0667252,6.2975 C24.1148423,6.2975 24.1355901,6.31818 24.1355901,6.36614 L24.1355901,7.63818 C24.1355901,7.68614 24.1148423,7.70682 24.0667252,7.70682 L23.344527,7.70682 C22.6086441,7.70682 22.2237072,7.42522 21.9689955,7.03318 C21.9279414,6.98478 21.8868874,6.98478 21.8383288,7.03318 C21.6529234,7.21886 21.377464,7.40454 21.0132748,7.57614 C20.6486441,7.75522 20.1811577,7.84454 19.6169955,7.84454 C17.698491,7.84454 16.8253198,6.85454 16.8253198,5.5825 C16.8253198,4.35886 17.8499054,3.30022 19.9127613,3.30022 L21.3090405,3.30022 C21.5911216,3.30022 21.6599865,3.13522 21.6599865,2.99046 C21.6599865,2.68818 21.5566892,1.99386 20.1811577,1.99386 C19.1221396,1.99386 18.7919414,2.42682 18.757509,2.92182 C18.757509,2.97022 18.7367613,2.99046 18.6886441,2.99046 L17.1480135,2.99046 C17.1003378,2.99046 17.0795901,2.97022 17.0795901,2.92182 C17.0795901,1.26478 18.5306081,0.43978 20.1811577,0.43978 Z M28.2326964,0.43978 C29.2091649,0.43978 29.9794802,0.66682 30.550264,1.11386 C31.1144261,1.5675 31.3960658,2.23454 31.3960658,3.11454 L31.3960658,5.85046 C31.3960658,6.1325 31.6026604,6.2975 31.9054892,6.2975 L32.118264,6.2975 C32.1663811,6.2975 32.1871288,6.31818 32.1871288,6.36614 L32.1871288,7.63818 C32.1871288,7.68614 32.1663811,7.70682 32.118264,7.70682 L31.3960658,7.70682 C30.6601829,7.70682 30.2752459,7.42522 30.0205342,7.03318 C29.9794802,6.98478 29.9384261,6.98478 29.8898676,7.03318 C29.7044622,7.21886 29.4290027,7.40454 29.0648135,7.57614 C28.7001829,7.75522 28.2326964,7.84454 27.6685342,7.84454 C25.7500297,7.84454 24.8768586,6.85454 24.8768586,5.5825 C24.8768586,4.35886 25.9014441,3.30022 27.9643,3.30022 L29.3605793,3.30022 C29.6426604,3.30022 29.7115252,3.13522 29.7115252,2.99046 C29.7115252,2.68818 29.6082279,1.99386 28.2326964,1.99386 C27.1736784,1.99386 26.8434802,2.42682 26.8090477,2.92182 C26.8090477,2.97022 26.7883,2.99046 26.7401829,2.99046 L25.1995523,2.99046 C25.1518766,2.99046 25.1311288,2.97022 25.1311288,2.92182 C25.1311288,1.26478 26.5821468,0.43978 28.2326964,0.43978 Z M36.9584045,0.440176 C39.1797378,0.440176 39.9293054,2.021096 39.9293054,3.795176 L39.9293054,7.638136 C39.9293054,7.686096 39.9085577,7.706776 39.8604405,7.706776 L38.3131883,7.706776 C38.2650712,7.706776 38.2443234,7.686096 38.2372604,7.638136 L38.2372604,3.795176 C38.2372604,2.949496 37.7971432,1.993816 36.6763234,1.993816 C35.5758099,1.993816 35.1290712,2.805176 35.1290712,3.650416 L35.1290712,7.638136 C35.1290712,7.686096 35.1017018,7.706776 35.0531432,7.706776 L33.505891,7.706776 C33.4577739,7.706776 33.4370261,7.686096 33.4370261,7.638136 L33.4370261,0.653136 C33.4370261,0.605176 33.4577739,0.584496 33.505891,0.584496 L34.8465486,0.584496 C34.9224766,0.584496 34.9639721,0.605176 34.9710351,0.653136 L35.1290712,1.086096 C35.1493775,1.141096 35.2253054,1.175416 35.2800441,1.100176 C35.5418189,0.763136 36.3527468,0.440176 36.9584045,0.440176 Z M46.0616333,4.70954 L44.4592009,4.70954 C43.2010928,4.70954 42.9944982,5.1975 42.9944982,5.5825 C42.9944982,5.88522 43.2280207,6.2975 44.0945703,6.2975 C45.5530928,6.2975 46.1375613,5.47954 46.1375613,4.77818 C46.1375613,4.72978 46.1097505,4.70954 46.0616333,4.70954 Z M3.49374414,1.993728 C2.89514955,1.993728 2.44134775,2.193048 2.14558198,2.592128 C1.84275315,2.990768 1.69222162,3.506448 1.69222162,4.145768 C1.69222162,4.785088 1.84275315,5.300768 2.14558198,5.699408 C2.44134775,6.098048 2.89514955,6.297368 3.49374414,6.297368 C4.67636577,6.297368 5.24052793,5.548048 5.24052793,4.145768 C5.24052793,3.506448 5.09617658,2.990768 4.8140955,2.592128 C4.52539279,2.193048 4.08527568,1.993728 3.49374414,1.993728 Z M21.5840586,4.70954 L19.9816261,4.70954 C18.723518,4.70954 18.5169234,5.1975 18.5169234,5.5825 C18.5169234,5.88522 18.7504459,6.2975 19.6169955,6.2975 C21.075518,6.2975 21.6599865,5.47954 21.6599865,4.77818 C21.6599865,4.72978 21.6321757,4.70954 21.5840586,4.70954 Z M29.6355973,4.70954 L28.0331649,4.70954 C26.7750568,4.70954 26.5684622,5.1975 26.5684622,5.5825 C26.5684622,5.88522 26.8019847,6.2975 27.6685342,6.2975 C29.1270568,6.2975 29.7115252,5.47954 29.7115252,4.77818 C29.7115252,4.72978 29.6837144,4.70954 29.6355973,4.70954 Z" id="Combined-Shape"></path>
            </g>
        </g>
    </g>
</svg>