<?xml version="1.0" encoding="UTF-8"?>
<svg width="46px" height="11px" viewBox="0 0 46 11" version="1.1" xmlns="http://www.w3.org/2000/svg" xmlns:xlink="http://www.w3.org/1999/xlink">
    <!-- Generator: Sketch 63 (92445) - https://sketch.com -->
    <title>Group</title>
    <desc>Created with Sketch.</desc>
    <g id="Symbols" stroke="none" stroke-width="1" fill="none" fill-rule="evenodd">
        <g id="Menu/Footer-(1)" transform="translate(-1060.000000, -313.000000)" fill="#141414">
            <g id="Group" transform="translate(1060.000000, 313.000000)">
                <g id="Logos/slack-mono">
                    <path d="M4.02852466,5.7650466 C4.66233825,5.7650466 5.1767965,6.27950485 5.17724505,6.91376699 L5.17724505,6.91376699 L5.17724505,9.78720194 C5.17724505,10.4214854 4.66280816,10.9359223 4.02852466,10.9359223 C3.39424117,10.9359223 2.87978291,10.4214854 2.87978291,9.78720194 L2.87978291,9.78720194 L2.87978291,6.91376699 C2.87978291,6.27950485 3.39424117,5.7650466 4.02852466,5.7650466 Z M6.90740408,8.63755456 C7.54168757,8.63755456 8.05612447,9.15201282 8.05612447,9.78627495 C8.05612447,10.4205584 7.54168757,10.9350167 6.90740408,10.9350167 C6.27309922,10.9350167 5.75913223,10.4210283 5.75866233,9.7871934 L5.75866233,9.7871934 L5.75866233,8.63755456 Z M9.9023068,5.76699029 C10.5370388,5.76699029 11.0519456,6.28187573 11.0519456,6.91662913 C11.0519456,7.55136117 10.5370388,8.06626796 9.9023068,8.06626796 L9.9023068,8.06626796 L7.02342524,8.06626796 C6.3886932,8.06626796 5.87378641,7.55136117 5.87378641,6.91662913 C5.87378641,6.28187573 6.3886932,5.76699029 7.02342524,5.76699029 L7.02342524,5.76699029 Z M2.30702252,5.76415379 L2.30702252,6.91377126 C2.30702252,7.54852466 1.79213709,8.0634101 1.15738369,8.0634101 C0.52265165,8.0634101 0.00774485437,7.54852466 0.00774485437,6.91377126 C0.00774485437,6.27903922 0.52265165,5.76415379 1.15738369,5.76415379 L1.15738369,5.76415379 L2.30702252,5.76415379 Z M4.02852039,2.88207262 C4.66325243,2.88207262 5.17815922,3.39695806 5.17815922,4.03171146 C5.17815922,4.6664435 4.66325243,5.18135029 4.02852039,5.18135029 L4.02852039,5.18135029 L1.14963883,5.18135029 C0.514906796,5.18135029 -1.57825055e-13,4.6664435 -1.57825055e-13,4.03171146 C-1.57825055e-13,3.39695806 0.514906796,2.88207262 1.14963883,2.88207262 L1.14963883,2.88207262 Z M9.77761806,2.8816134 C10.4123501,2.8816134 10.9272783,3.39652019 10.9272783,4.03125223 C10.9272783,4.66600563 10.4123501,5.18089107 9.77761806,5.18089107 L9.77761806,5.18089107 L8.62889767,5.18089107 L8.62889767,4.0289668 C8.62889767,3.39513184 9.14241612,2.8816134 9.77625107,2.8816134 L9.77625107,2.8816134 Z M6.90785262,0.000918446602 C7.54215748,0.000918446602 8.05659437,0.51535534 8.05659437,1.14963883 L8.05659437,1.14963883 L8.05659437,4.03170291 C8.05659437,4.66598641 7.54215748,5.18044466 6.90785262,5.18044466 C6.27356913,5.18044466 5.75913223,4.66598641 5.75913223,4.03170291 L5.75913223,4.03170291 L5.75913223,1.14963883 C5.75913223,0.51535534 6.27356913,0.000918446602 6.90785262,0.000918446602 Z M4.02989165,-4.27184469e-06 C4.6632567,-4.27184469e-06 5.1767965,0.513535534 5.17724505,1.14734913 L5.17724505,1.14734913 L5.17724505,2.2992734 L4.02852466,2.2992734 C3.39377126,2.2992734 2.87888583,1.78438796 2.87888583,1.14963456 C2.87888583,0.514902524 3.39377126,-4.27184469e-06 4.02852466,-4.27184469e-06 L4.02852466,-4.27184469e-06 Z" id="Combined-Shape"></path>
                </g>
                <g id="Logos/slack-typo" transform="translate(15.000000, 0.000000)">
                    <path d="M26.2074117,5.60886282 C26.8885893,4.79897946 27.5729488,3.9917691 28.2475481,3.1765041 C28.3537307,3.04816446 28.4601278,3.0027591 28.6238707,3.00482622 C29.3326487,3.01377186 30.0416053,3.0086397 30.8013295,3.0086397 C29.8724997,4.08553794 28.9679811,5.1342093 28.0534162,6.19457058 C29.0344435,7.3230399 30.0113594,8.44680474 31.0092615,9.5945553 C30.9222418,9.59922414 30.8660401,9.60478398 30.8098026,9.60485526 C30.1007744,9.60546114 29.3916747,9.60157638 28.6826823,9.60852114 C28.5494714,9.60980922 28.4664201,9.56860938 28.3836549,9.46568106 C27.7056234,8.62236738 27.021693,7.7836869 26.3393355,6.94379466 C26.2947174,6.88890906 26.2483832,6.83537778 26.1770227,6.75059022 L26.1770227,9.59345046 L24.211965,9.59345046 L24.211965,0.03562218 L26.1647241,0.03562218 L26.1647241,5.6018061 C26.1789533,5.60415834 26.1932183,5.60651058 26.2074117,5.60886282" id="Fill-1"></path>
                    <path d="M14.1784581,6.3255262 C14.1784581,6.17719252 14.1591879,6.02582944 14.182212,5.88116668 C14.2411666,5.5116868 14.0567592,5.26787356 13.7830083,5.07131896 C13.6394293,4.96821244 13.486984,4.8666028 13.3232768,4.80398332 C12.7061306,4.56779704 12.1144038,4.6185484 11.5948955,5.04697684 C11.0991978,5.45580328 10.9075686,5.99945584 11.0357743,6.62411812 C11.1797465,7.32597664 11.6322203,7.75661476 12.3319173,7.91015188 C12.9754841,8.0513932 13.76288,7.73843836 14.1137832,7.2158134 C14.1535749,7.156651 14.1730953,7.07428696 14.1755979,7.00175956 C14.1833918,6.7765504 14.1784223,6.5509492 14.1784581,6.3255262 L14.1784581,6.3255262 Z M16.1298229,9.59271628 L14.1812825,9.59271628 L14.1812825,8.83875208 C13.7503669,9.3873586 13.2080133,9.63156388 12.5868628,9.70647916 C11.5187443,9.83531776 10.6450079,9.452758 9.9600764,8.64465664 C8.63508175,7.0814506 8.93235734,4.51975432 10.5737547,3.39477772 C11.4422356,2.79951844 12.3800034,2.70881464 13.3569192,3.11557396 C13.6732147,3.24722812 13.938421,3.45230068 14.1743109,3.76739392 L14.1743109,3.02066464 L16.1298229,3.02066464 L16.1298229,9.59271628 Z" id="Fill-4"></path>
                    <path d="M23.4208723,4.63549522 C22.8967162,4.9251415 22.3829282,5.20904974 21.8700697,5.49242338 C21.1689784,4.42988806 19.9385828,4.50633586 19.2988415,5.1095785 C18.610871,5.75829778 18.6155903,6.8648485 19.3082084,7.50722386 C19.9532768,8.1054769 21.1719458,8.16991402 21.8681391,7.11660946 C22.125623,7.25799334 22.3847873,7.39951978 22.643165,7.54243618 C22.902079,7.68567334 23.1602779,7.83019354 23.4182624,7.97382274 C22.7931435,9.16623022 21.3136656,9.99692734 19.7116309,9.66069958 C18.1477432,9.33245518 17.0007206,7.9502647 16.9816292,6.38794966 C16.9617513,4.76219542 18.0334807,3.35562718 19.5826744,2.9759899 C21.2438425,2.56883854 22.7707629,3.4268359 23.4208723,4.63549522" id="Fill-6"></path>
                    <polygon id="Fill-11" points="6.37460392 9.59631948 8.3183179 9.59631948 8.3183179 0.03621024 6.37460392 0.03621024"></polygon>
                    <path d="M0,8.89953966 C0.186945766,8.46711954 0.372032441,8.03897622 0.563554428,7.59597102 C0.624689876,7.63271586 0.67370549,7.66165554 0.722149076,7.69148622 C1.47186273,8.15320242 2.28356988,8.3546397 3.16077418,8.24215986 C3.31271901,8.22266478 3.47313699,8.15049378 3.59740999,8.05911282 C3.87362781,7.85589354 3.84960265,7.52023602 3.54464044,7.3643823 C3.34632563,7.26302214 3.1239499,7.20339642 2.9071157,7.1439489 C2.44298681,7.01667846 1.96702411,6.92679438 1.51136839,6.77536002 C0.91113269,6.57588294 0.419153214,6.22575558 0.25423051,5.57165466 C0.0415077517,4.72802022 0.292306097,4.02263334 0.962114648,3.47334966 C1.41848541,3.09909402 1.96044579,2.92812894 2.54398543,2.88856854 C3.36713313,2.8327563 4.1586048,2.95699734 4.90031007,3.33271422 C5.01661043,3.39162714 5.1248309,3.46668498 5.23501771,3.53696706 C5.2742016,3.56198634 5.30820149,3.5950959 5.35221186,3.63070026 C5.17609887,4.07466774 5.00173771,4.51421586 4.83849534,4.92575094 C4.43700348,4.76227026 4.05892899,4.56667794 3.65718687,4.45733442 C3.30735625,4.36213998 2.93146262,4.34428434 2.56582974,4.33330722 C2.41906891,4.32888786 2.25171509,4.40879274 2.12408143,4.49497026 C1.86523895,4.66960626 1.86309385,4.97946042 2.12922968,5.1416937 C2.33869903,5.26939182 2.5796299,5.35243302 2.81505501,5.4298431 C3.2721408,5.58013698 3.73666295,5.7080133 4.19485705,5.85513522 C4.33521832,5.90018418 4.46810748,5.97196314 4.5993163,6.04114038 C5.90314593,6.72863598 5.73582786,8.19044622 5.08171432,8.90570538 C4.65558952,9.37166274 4.11384364,9.62278218 3.50138086,9.69138918 C2.32311128,9.82332846 1.19889832,9.64028142 0.169534676,9.01750806 C0.114048,8.98393518 0.0628157793,8.94348378 0,8.89953966" id="Fill-9"></path>
                </g>
            </g>
        </g>
    </g>
</svg>