<?xml version="1.0" encoding="UTF-8"?>
<svg version="1.1" viewBox="0 0 46 11" xmlns="http://www.w3.org/2000/svg">
<title>Group</title>
<desc>Created with Sketch.</desc>
<g fill="none" fill-rule="evenodd">
<g transform="translate(-1060 -313)" fill="#fff">
<g transform="translate(1060 313)">
<path d="m4.0285 5.765c0.63381 0 1.1483 0.51446 1.1487 1.1487v2.8734c0 0.63428-0.51444 1.1487-1.1487 1.1487-0.63428 0-1.1487-0.51444-1.1487-1.1487v-2.8734c0-0.63426 0.51446-1.1487 1.1487-1.1487zm2.8789 2.8725c0.63428 0 1.1487 0.51446 1.1487 1.1487 0 0.63428-0.51444 1.1487-1.1487 1.1487-0.6343 0-1.1483-0.51399-1.1487-1.1478v-1.1496zm2.9949-2.8706c0.63473 0 1.1496 0.51489 1.1496 1.1496 0 0.63473-0.51491 1.1496-1.1496 1.1496h-2.8789c-0.63473 0-1.1496-0.51491-1.1496-1.1496 0-0.63475 0.51491-1.1496 1.1496-1.1496zm-7.5953-0.0028365v1.1496c0 0.63475-0.51489 1.1496-1.1496 1.1496-0.63473 0-1.1496-0.51489-1.1496-1.1496 0-0.63473 0.51491-1.1496 1.1496-1.1496h1.1496zm1.7215-2.8821c0.63473 0 1.1496 0.51489 1.1496 1.1496 0 0.63473-0.51491 1.1496-1.1496 1.1496h-2.8789c-0.63473 0-1.1496-0.51491-1.1496-1.1496 0-0.63475 0.51491-1.1496 1.1496-1.1496zm5.7491-4.5922e-4c0.63473 0 1.1497 0.51491 1.1497 1.1496 0 0.63475-0.51493 1.1496-1.1497 1.1496h-1.1487v-1.1519c0-0.63383 0.51352-1.1474 1.1474-1.1474zm-2.8698-2.8807c0.6343 0 1.1487 0.51444 1.1487 1.1487v2.8821c0 0.63428-0.51444 1.1487-1.1487 1.1487-0.63428 0-1.1487-0.51446-1.1487-1.1487v-2.8821c0-0.63428 0.51444-1.1487 1.1487-1.1487zm-2.878-9.2272e-4c0.63337 0 1.1469 0.51354 1.1474 1.1474v1.1519h-1.1487c-0.63475 0-1.1496-0.51489-1.1496-1.1496 0-0.63473 0.51489-1.1496 1.1496-1.1496z"/>
<g transform="translate(15)">
<path d="m26.207 5.6089c0.68118-0.80988 1.3655-1.6171 2.0401-2.4324 0.10618-0.12834 0.21258-0.17374 0.37632-0.17168 0.70878 0.0089456 1.4177 0.0038135 2.1775 0.0038135-0.92883 1.0769-1.8333 2.1256-2.7479 3.1859 0.98103 1.1285 1.9579 2.2522 2.9558 3.4-0.08702 0.0046688-0.14322 0.010229-0.19946 0.0103-0.70903 6.0588e-4 -1.4181-0.0032789-2.1271 0.0036659-0.13321 0.0012881-0.21626-0.039912-0.29903-0.14284-0.67803-0.84331-1.362-1.682-2.0443-2.5219-0.044618-0.054886-0.090952-0.10842-0.16231-0.1932v2.8429h-1.9651v-9.5578h1.9528v5.5662c0.014229 0.0023522 0.028494 0.0047045 0.042688 0.0070567"/>
<path d="m14.178 6.3255c0-0.14833-0.01927-0.2997 0.0037539-0.44436 0.058955-0.36948-0.12545-0.61329-0.3992-0.80985-0.14358-0.10311-0.29602-0.20472-0.45973-0.26734-0.61715-0.23619-1.2089-0.18543-1.7284 0.24299-0.4957 0.40883-0.68733 0.95248-0.55912 1.5771 0.14397 0.70186 0.59645 1.1325 1.2961 1.286 0.64357 0.14124 1.431-0.17171 1.7819-0.69434 0.039792-0.059162 0.059312-0.14153 0.061815-0.21405 0.0077939-0.22521 0.0028244-0.45081 0.0028602-0.67623zm1.9514 3.2672h-1.9485v-0.75396c-0.43092 0.54861-0.97327 0.79281-1.5944 0.86773-1.0681 0.12884-1.9419-0.25372-2.6268-1.0618-1.325-1.5632-1.0277-4.1249 0.61368-5.2499 0.86848-0.59526 1.8062-0.68596 2.7832-0.2792 0.3163 0.13165 0.5815 0.33673 0.81739 0.65182v-0.74673h1.9555v6.5721z"/>
<path d="m23.421 4.6355c-0.52416 0.28965-1.0379 0.57355-1.5508 0.85693-0.70109-1.0625-1.9315-0.98609-2.5712-0.38284-0.68797 0.64872-0.68325 1.7553 0.0093669 2.3976 0.64507 0.59825 1.8637 0.66269 2.5599-0.39061 0.25748 0.14138 0.51665 0.28291 0.77503 0.42583 0.25891 0.14324 0.51711 0.28776 0.7751 0.43139-0.62512 1.1924-2.1046 2.0231-3.7066 1.6869-1.5639-0.32824-2.7109-1.7104-2.73-3.2727-0.019878-1.6258 1.0519-3.0323 2.601-3.412 1.6612-0.40715 3.1881 0.45085 3.8382 1.6595"/>
<polygon points="6.3746 9.5963 8.3183 9.5963 8.3183 0.03621 6.3746 0.03621"/>
<path d="m0 8.8995c0.18695-0.43242 0.37203-0.86056 0.56355-1.3036 0.061135 0.036745 0.11015 0.065685 0.15859 0.095515 0.74971 0.46172 1.5614 0.66315 2.4386 0.55067 0.15194-0.019495 0.31236-0.091666 0.43664-0.18305 0.27622-0.20322 0.25219-0.53888-0.05277-0.69473-0.19831-0.10136-0.42069-0.16099-0.63752-0.22043-0.46413-0.12727-0.94009-0.21715-1.3957-0.36859-0.60024-0.19948-1.0922-0.5496-1.2571-1.2037-0.21272-0.84363 0.038076-1.549 0.70788-2.0983 0.45637-0.37426 0.99833-0.54522 1.5819-0.58478 0.82315-0.055812 1.6146 0.068429 2.3563 0.44415 0.1163 0.058913 0.22452 0.13397 0.33471 0.20425 0.039184 0.025019 0.073184 0.058129 0.11719 0.093733-0.17611 0.44397-0.35047 0.88352-0.51372 1.2951-0.40149-0.16348-0.77957-0.35907-1.1813-0.46842-0.34983-0.095194-0.72572-0.11305-1.0914-0.12403-0.14676-0.0044194-0.31411 0.075486-0.44175 0.16166-0.25884 0.17464-0.26099 0.48449 0.0051482 0.64672 0.20947 0.1277 0.4504 0.21074 0.68583 0.28815 0.45709 0.15029 0.92161 0.27817 1.3798 0.42529 0.14036 0.045049 0.27325 0.11683 0.40446 0.18601 1.3038 0.6875 1.1365 2.1493 0.4824 2.8646-0.42612 0.46596-0.96787 0.71708-1.5803 0.78568-1.1783 0.13194-2.3025-0.051108-3.3318-0.67388-0.055487-0.033573-0.10672-0.074024-0.16953-0.11797"/>
</g>
</g>
</g>
</g>
</svg>
