<?xml version="1.0" encoding="UTF-8"?>
<svg width="64px" height="27px" viewBox="0 0 64 27" version="1.1" xmlns="http://www.w3.org/2000/svg" xmlns:xlink="http://www.w3.org/1999/xlink">
    <!-- Generator: Sketch 63 (92445) - https://sketch.com -->
    <title>Group 31</title>
    <desc>Created with Sketch.</desc>
    <defs>
        <polygon id="path-1" points="0.1364 0.5352 15.0135392 0.5352 15.0135392 15.8946555 0.1364 15.8946555"></polygon>
        <polygon id="path-3" points="0 0.35244 6.16296 0.35244 6.16296 7.13844 0 7.13844"></polygon>
    </defs>
    <g id="New" stroke="none" stroke-width="1" fill="none" fill-rule="evenodd">
        <g id="Homepage" transform="translate(-506.000000, -8689.000000)">
            <g id="Group-31" transform="translate(506.000000, 8688.000000)">
                <g id="Group-3" transform="translate(10.600000, 0.665280)">
                    <mask id="mask-2" fill="white">
                        <use xlink:href="#path-1"></use>
                    </mask>
                    <g id="Clip-2"></g>
                    <path d="M11.9984,2.05908 C10.9412,1.24308 9.6884,0.71748 8.3648,0.53388 C11.456,2.61108 12.2744,6.79308 10.1936,9.87708 C8.1116,12.95988 3.9176,13.77708 0.8264,11.70108 C0.5852,11.53908 0.3536,11.36148 0.1364,11.16948 C1.796,15.09948 6.3356,16.94268 10.2752,15.28668 C14.216,13.63188 16.064,9.10428 14.4044,5.17428 C13.886,3.94668 13.0568,2.87268 11.9984,2.05908" id="Fill-1" fill="#FFD000" mask="url(#mask-2)"></path>
                </g>
                <path d="M11.25528,8.64528 C11.78448,9.70248 13.07328,10.12968 14.13288,9.60168 C15.19248,9.07248 15.62208,7.78848 15.09168,6.73128 C14.56128,5.67528 13.27368,5.24688 12.21408,5.77488 C11.77608,5.99448 11.42568,6.35568 11.22168,6.80088 C10.98528,7.31208 10.96248,7.89528 11.15808,8.42208 C11.18688,8.49408 11.22048,8.57448 11.25528,8.64528" id="Fill-4" fill="#FFD000"></path>
                <path d="M14.85408,4.0176 L14.85408,4.0176 C16.88688,4.9416 17.78328,7.3344 16.85688,9.3624 C16.51848,10.1028 15.96168,10.7244 15.26208,11.1444 C17.67168,11.1144 19.60008,9.1416 19.56888,6.7392 C19.53888,4.3368 17.56008,2.4132 15.15168,2.4432 C13.95768,2.4588 12.82368,2.9604 12.01128,3.8328 C12.94968,3.546 13.96128,3.612 14.85408,4.0176" id="Fill-6" fill="#FFD000"></path>
                <g id="Group-10" transform="translate(0.000000, 19.865280)">
                    <mask id="mask-4" fill="white">
                        <use xlink:href="#path-3"></use>
                    </mask>
                    <g id="Clip-9"></g>
                    <polygon id="Fill-8" fill="#FFFFFF" mask="url(#mask-4)" points="3.08616 4.02204 1.30896 0.35244 -0.00024 0.35244 -0.00024 7.13844 1.32816 7.13844 1.32816 3.18324 2.63616 5.75724 3.53496 5.75724 4.83456 3.18324 4.83456 7.13844 6.16296 7.13844 6.16296 0.35244 4.85496 0.35244"></polygon>
                </g>
                <path d="M9.52212,20.16192 C8.82972,20.14272 8.16132,20.41392 7.67772,20.90832 C6.99012,21.59352 7.00812,22.44312 7.00812,23.61432 C7.00812,24.78672 6.98292,25.63632 7.67772,26.32152 C8.70252,27.31272 10.33212,27.31272 11.35692,26.32152 C12.04452,25.63632 12.0349271,24.78672 12.0349271,23.61432 C12.0349271,22.44312 12.04452,21.59352 11.35692,20.90832 C10.87692,20.41392 10.21092,20.14272 9.52212,20.16192 M10.37172,25.51752 L10.37172,25.51752 C10.15572,25.75632 9.84492,25.88832 9.52212,25.87992 C9.19572,25.88832 8.88132,25.75752 8.66172,25.51752 C8.40252,25.23192 8.33652,24.91272 8.33652,23.61192 C8.33652,22.31112 8.40252,21.99192 8.66172,21.70512 C8.88252,21.46632 9.19572,21.33552 9.52212,21.34392 C9.84492,21.33552 10.15452,21.46752 10.37172,21.70512 C10.62972,21.99192 10.70532,22.31112 10.70532,23.61192 C10.70532,24.91272 10.62492,25.23192 10.37172,25.51752" id="Fill-11" fill="#FFFFFF"></path>
                <path d="M15.33108,20.16192 C14.63868,20.14272 13.97028,20.41392 13.48668,20.90832 C12.79908,21.59352 12.81708,22.44312 12.81708,23.61432 C12.81708,24.78672 12.79788,25.63632 13.48668,26.32152 C14.51148,27.31272 16.14108,27.31272 17.16588,26.32152 C17.85348,25.63632 17.8438871,24.78672 17.8438871,23.61432 C17.8438871,22.44312 17.85348,21.59352 17.16588,20.90832 C16.68588,20.41392 16.01988,20.14272 15.33108,20.16192 L15.33108,20.16192 Z M16.18068,25.51752 C15.96348,25.75512 15.65388,25.88712 15.33108,25.87752 C15.00588,25.88592 14.69148,25.75392 14.47188,25.51512 C14.21388,25.22952 14.14668,24.90912 14.14668,23.60832 C14.14668,22.30872 14.21388,21.98832 14.47188,21.70272 C14.69148,21.46392 15.00588,21.33192 15.33108,21.34032 C15.65388,21.33192 15.96468,21.46392 16.18068,21.70272 C16.43868,21.98832 16.51428,22.30872 16.51428,23.60832 C16.51428,24.90912 16.44228,25.23192 16.18308,25.51752 L16.18068,25.51752 Z" id="Fill-13" fill="#FFFFFF"></path>
                <polygon id="Fill-15" fill="#FFFFFF" points="22.57092 24.37368 19.87692 20.21808 18.69132 20.21808 18.69132 27.00288 20.01972 27.00288 20.01972 22.83888 22.71372 27.00288 23.89932 27.00288 23.89932 20.21808 22.57092 20.21808"></polygon>
                <path d="M27.25836,21.33492 C27.92676,21.33492 28.27116,21.75492 28.40436,22.29852 L29.75076,22.29852 C29.51196,20.87772 28.51836,20.15412 27.24756,20.15412 C26.55876,20.14092 25.89516,20.40972 25.41276,20.90052 C24.72516,21.58572 24.74316,22.43532 24.74316,23.60772 C24.74316,24.77892 24.72396,25.62852 25.41276,26.31372 C25.89636,26.80332 26.55996,27.07092 27.24756,27.05772 C28.50876,27.05772 29.51196,26.33172 29.75076,24.91332 L28.40316,24.91332 C28.26876,25.45812 27.92436,25.87692 27.25716,25.87692 C26.93556,25.88892 26.62476,25.76052 26.40756,25.52412 C26.14836,25.23732 26.07276,24.91812 26.07276,23.60892 C26.07276,22.29972 26.14836,21.97932 26.40756,21.69372 C26.62356,21.45492 26.93556,21.32292 27.25836,21.33492" id="Fill-17" fill="#FFFFFF"></path>
                <path d="M32.29164,20.21928 L32.29164,20.21928 L29.82084,27.00528 L31.20684,27.00528 L31.61724,25.80528 L34.03164,25.80528 L34.43244,27.00528 L35.82204,27.00528 L33.33324,20.21928 L32.29164,20.21928 Z M31.98084,24.69288 L31.98084,24.69288 L32.84004,22.22568 L33.66804,24.69768 L31.98084,24.69768 L31.98084,24.69288 Z" id="Fill-19" fill="#FFFFFF"></path>
                <path d="M39.2274,23.04 L38.4246,22.926 C38.1918,22.902 37.9722,22.8096 37.7934,22.6596 C37.6602,22.5324 37.5882,22.3572 37.593,22.1736 C37.593,21.708 37.9374,21.3156 38.6442,21.3156 C39.1002,21.3156 39.609,21.372 40.0398,21.7812 L40.8798,20.9532 C40.2978,20.3916 39.6186,20.1624 38.6826,20.1624 C37.2114,20.1624 36.3126,21.0096 36.3126,22.2204 C36.3126,22.7928 36.4746,23.2296 36.801,23.5548 C37.125,23.8776 37.5366,24.0312 38.1186,24.1152 L38.9406,24.2292 C39.1626,24.24 39.3762,24.3228 39.5478,24.4668 C39.6954,24.6192 39.7698,24.828 39.7566,25.0392 C39.7566,25.5828 39.3366,25.878 38.553,25.878 C37.9218,25.878 37.3386,25.7352 36.909,25.3068 L36.0402,26.1648 C36.7074,26.8428 37.4922,27.0624 38.5242,27.0624 C39.9486,27.0624 41.0478,26.3184 41.0478,25.0032 C41.0478,24.3972 40.8846,23.9076 40.5222,23.5644 C40.2366,23.3028 39.8454,23.1252 39.2274,23.04" id="Fill-21" fill="#FFFFFF"></path>
                <path d="M44.24412,25.87716 C43.92132,25.88916 43.61172,25.75956 43.39332,25.52436 C43.13532,25.23756 43.05972,24.91836 43.05972,23.60796 C43.05972,22.29996 43.13532,21.97956 43.39332,21.69396 C43.60932,21.45876 43.91772,21.33036 44.23572,21.33996 C44.90532,21.33996 45.24852,21.75876 45.38172,22.30236 L46.72932,22.30236 C46.49172,20.88276 45.49812,20.15796 44.22612,20.15796 C43.54332,20.14956 42.88452,20.41836 42.40572,20.90436 C41.71812,21.59076 41.7360754,22.44036 41.7360754,23.61156 C41.7360754,24.78396 41.71812,25.63356 42.40572,26.31876 C42.89052,26.80476 43.55412,27.07236 44.24172,27.05676 C45.50412,27.05676 46.50732,26.33196 46.74492,24.91356 L45.38532,24.91356 C45.25692,25.45956 44.91252,25.87716 44.24412,25.87716" id="Fill-23" fill="#FFFFFF"></path>
                <path d="M49.2726,20.2182 L46.7982,27.003 L48.183,27.003 L48.5946,25.8018 L51.0114,25.8018 L51.4122,27.003 L52.7982,27.003 L50.307,20.2182 L49.2726,20.2182 Z M48.969,24.687 L48.969,24.687 L49.8294,22.2186 L50.661,24.687 L48.9702,24.687 L48.969,24.687 Z" id="Fill-25" fill="#FFFFFF"></path>
                <path d="M57.5496,20.8674 C57.0936,20.4126 56.46,20.2194 55.7544,20.2194 L53.298,20.2194 L53.298,27.0042 L55.7544,27.0042 C56.4612,27.0042 57.102,26.8038 57.5496,26.3562 C58.3092,25.599 58.2372,24.603 58.2372,23.583 C58.2372,22.563 58.314,21.6294 57.5496,20.8674 L57.5496,20.8674 Z M56.6232,25.4082 L56.6232,25.4082 C56.376,25.6986 56.0076,25.8546 55.6272,25.8282 L54.624,25.8282 L54.624,21.399 L55.6272,21.399 C56.0064,21.3762 56.3736,21.5322 56.6184,21.819 C56.8668,22.1226 56.9052,22.5534 56.9052,23.583 C56.9052,24.6126 56.8716,25.0962 56.6184,25.4022 L56.6232,25.4082 Z" id="Fill-27" fill="#FFFFFF"></path>
                <polygon id="Fill-29" fill="#FFFFFF" points="63.56364 21.39936 63.56364 20.21856 59.08284 20.21856 59.08284 27.00336 63.56364 27.00336 63.56364 25.82256 60.41124 25.82256 60.41124 24.17376 63.09564 24.17376 63.09564 22.99056 60.41124 22.99056 60.41124 21.39936"></polygon>
            </g>
        </g>
    </g>
</svg>