<?xml version="1.0" encoding="UTF-8"?>
<svg width="101px" height="15px" viewBox="0 0 101 15" version="1.1" xmlns="http://www.w3.org/2000/svg" xmlns:xlink="http://www.w3.org/1999/xlink">
    <!-- Generator: Sketch 63 (92445) - https://sketch.com -->
    <title>Group 46</title>
    <desc>Created with Sketch.</desc>
    <defs>
        <polygon id="path-1" points="0.02310672 0.0184704 3.0539808 0.0184704 3.0539808 14.7196358 0.02310672 14.7196358"></polygon>
        <polygon id="path-3" points="0.0311688 0.0184704 2.22729328 0.0184704 2.22729328 14.7687509 0.0311688 14.7687509"></polygon>
        <polygon id="path-5" points="6.24e-06 0.01853904 7.56931344 0.01853904 7.56931344 14.7264 6.24e-06 14.7264"></polygon>
    </defs>
    <g id="New" stroke="none" stroke-width="1" fill="none" fill-rule="evenodd">
        <g id="Homepage" transform="translate(-254.000000, -8694.000000)">
            <g id="Group-46" transform="translate(254.000000, 8694.000000)">
                <path d="M65.085671,14.8900128 C64.2625526,14.8900128 63.4881062,14.6395392 62.905103,14.1847056 C62.1964886,13.631904 61.8219014,12.8339952 61.8219014,11.8771536 C61.8219014,10.637952 62.4105206,9.9537984 62.9043542,9.5979312 C63.5598038,9.1257504 64.4676614,8.8961808 65.6799062,8.8961808 L67.2494534,8.8961808 C67.6256006,8.8961808 67.930487,9.2010672 67.930487,9.577152 C67.930487,9.9532992 67.6256006,10.2581232 67.2494534,10.2581232 L65.6799062,10.2581232 C63.1839062,10.2581232 63.1839062,11.39268 63.1839062,11.8771536 C63.1839062,13.0956384 64.208327,13.5280704 65.085671,13.5280704 C65.8621766,13.5280704 66.9762662,12.91368 67.2208742,12.701208 C67.504919,12.4546656 67.9349798,12.4848048 68.1815846,12.7687248 C68.4281894,13.0527072 68.3979878,13.482768 68.1140678,13.7294352 C67.6627286,14.1214944 66.2670278,14.8900128 65.085671,14.8900128" id="Fill-1" fill="#ED5526"></path>
                <path d="M68.6473133,14.7754464 C68.5236365,14.7754464 68.3985245,14.7418128 68.2860173,14.671176 C67.9148621,14.4383616 67.2239693,14.0048688 67.2239693,12.8137152 L67.2239693,7.846176 C67.2239693,6.5402688 66.0325037,6.1952592 65.4025133,6.1952592 C64.4909117,6.1952592 63.6912557,6.4978992 63.2835341,6.756984 C62.9660429,6.9586608 62.5452173,6.864936 62.3435405,6.5475072 C62.1418013,6.2300784 62.2355885,5.8091904 62.5530173,5.6074512 C62.8388093,5.4258672 63.8888765,4.8333168 65.4025133,4.8333168 C66.6809021,4.8333168 67.4371901,5.3962896 67.8465341,5.8686576 C68.3164685,6.4109136 68.5860365,7.1317584 68.5860365,7.846176 L68.5860365,12.8137152 C68.5860365,13.2515136 68.7276845,13.3404336 69.0098573,13.5175248 C69.3284717,13.717392 69.4246925,14.137656 69.2248253,14.4562704 C69.0955325,14.6623776 68.8738877,14.7754464 68.6473133,14.7754464" id="Fill-3" fill="#ED5526"></path>
                <path d="M17.9492914,14.8275504 C17.126173,14.8275504 16.3517266,14.5770768 15.7687234,14.1222432 C15.060109,13.5694416 14.6855218,12.7715328 14.6855218,11.8146912 C14.6855218,10.575552 15.274141,9.891336 15.7679746,9.5355312 C16.4234242,9.063288 17.3312818,8.8337184 18.5435266,8.8337184 L20.1130738,8.8337184 C20.489221,8.8337184 20.7941074,9.1386048 20.7941074,9.5146896 C20.7941074,9.8908368 20.489221,10.1956608 20.1130738,10.1956608 L18.5435266,10.1956608 C16.0475266,10.1956608 16.0475266,11.3302176 16.0475266,11.8146912 C16.0475266,13.033176 17.0719474,13.465608 17.9492914,13.465608 C18.725797,13.465608 19.8398866,12.8512176 20.0844946,12.6387456 C20.3685394,12.3921408 20.7986002,12.4223424 21.045205,12.7062624 C21.2918098,12.9902448 21.2616082,13.4203056 20.9776882,13.6669728 C20.526349,14.059032 19.1306482,14.8275504 17.9492914,14.8275504" id="Fill-5" fill="#ED5526"></path>
                <path d="M21.573371,14.7754464 C21.4496942,14.7754464 21.3245822,14.7418128 21.212075,14.671176 C20.8409198,14.4383616 20.150027,14.0048688 20.150027,12.8137152 L20.150027,7.846176 C20.150027,6.5402688 18.9586238,6.1952592 18.328571,6.1952592 C17.4169694,6.1952592 16.6173134,6.4978992 16.2095918,6.756984 C15.8921006,6.9586608 15.471275,6.864936 15.2695982,6.5475072 C15.067859,6.2300784 15.1616462,5.8091904 15.479075,5.6074512 C15.764867,5.4258672 16.8149342,4.8333168 18.328571,4.8333168 C19.6070222,4.8333168 20.3632478,5.3962896 20.7725918,5.8686576 C21.2425262,6.4109136 21.5120942,7.1317584 21.5120942,7.846176 L21.5120942,12.8137152 C21.5120942,13.2515136 21.6537422,13.3404336 21.935915,13.5175248 C22.2545294,13.717392 22.3507502,14.137656 22.150883,14.4562704 C22.0215902,14.6623776 21.7999454,14.7754464 21.573371,14.7754464" id="Fill-7" fill="#ED5526"></path>
                <path d="M92.1339682,14.8275504 C91.3108498,14.8275504 90.5364658,14.5770768 89.9534002,14.1222432 C89.2447858,13.5694416 88.8701986,12.7715328 88.8701986,11.8146912 C88.8701986,10.575552 89.4588178,9.891336 89.9526514,9.5355312 C90.608101,9.063288 91.516021,8.8337184 92.7282034,8.8337184 L94.2977506,8.8337184 C94.6738978,8.8337184 94.9787842,9.1386048 94.9787842,9.5146896 C94.9787842,9.8908368 94.6738978,10.1956608 94.2977506,10.1956608 L92.7282034,10.1956608 C90.2322034,10.1956608 90.2322034,11.3302176 90.2322034,11.8146912 C90.2322034,13.033176 91.2566242,13.465608 92.1339682,13.465608 C92.9104738,13.465608 94.0245634,12.8512176 94.2691714,12.6387456 C94.5532162,12.3921408 94.9833394,12.4223424 95.2298818,12.7062624 C95.476549,12.9902448 95.4463474,13.4203056 95.1624274,13.6669728 C94.7110882,14.059032 93.315325,14.8275504 92.1339682,14.8275504" id="Fill-9" fill="#ED5526"></path>
                <path d="M95.6956416,14.7130464 C95.5719648,14.7130464 95.4467904,14.6793504 95.3342832,14.608776 C94.9631904,14.3758992 94.2722976,13.942344 94.2722976,12.7512528 L94.2722976,7.7837136 C94.2722976,6.4778688 93.080832,6.1327968 92.4508416,6.1327968 C91.5393024,6.1327968 90.7396464,6.4354368 90.3318,6.6945216 C90.0143712,6.896136 89.5934832,6.8024112 89.3918064,6.4849824 C89.1900672,6.1675536 89.2839168,5.7466656 89.6013456,5.5449888 C89.8872,5.3633424 90.9374544,4.7708544 92.4508416,4.7708544 C93.7292304,4.7708544 94.485456,5.3338272 94.8948,5.8061952 C95.3647344,6.3484512 95.6343024,7.069296 95.6343024,7.7837136 L95.6343024,12.7512528 C95.6343024,13.1890512 95.7760128,13.2779712 96.058248,13.4551248 C96.3768624,13.6550544 96.4730208,14.0753184 96.2730912,14.3939328 C96.1437984,14.5999776 95.922216,14.7130464 95.6956416,14.7130464" id="Fill-11" fill="#ED5526"></path>
                <path d="M54.0351677,14.679469 C53.6590829,14.679469 53.3541341,14.3745826 53.3541341,13.9984978 L53.3541341,8.48439696 C53.3541341,6.47237136 52.7426765,6.13279056 51.3720605,6.13279056 C50.7411341,6.13279056 49.7788013,6.37852176 49.0509053,6.92745456 C48.7505741,7.15384176 48.3235709,7.09400016 48.0971213,6.79366896 C47.8706717,6.49340016 47.9305133,6.06639696 48.2308445,5.83994736 C49.0921517,5.19048816 50.3251133,4.77084816 51.3720605,4.77084816 C53.6847917,4.77084816 54.7162013,5.91613776 54.7162013,8.48439696 L54.7162013,13.9984978 C54.7162013,14.3745826 54.4112525,14.679469 54.0351677,14.679469" id="Fill-13" fill="#ED5526"></path>
                <path d="M48.6408624,14.8580827 C48.2647776,14.8580827 47.9598288,14.5531963 47.9598288,14.1771115 L47.9598288,5.60116752 C47.9598288,5.22508272 48.2647776,4.92019632 48.6408624,4.92019632 C49.0169472,4.92019632 49.321896,5.22508272 49.321896,5.60116752 L49.321896,14.1771115 C49.321896,14.5531963 49.0169472,14.8580827 48.6408624,14.8580827" id="Fill-15" fill="#ED5526"></path>
                <path d="M77.1790531,14.7419314 C76.8029683,14.7419314 76.4980195,14.437045 76.4980195,14.0609602 L76.4980195,8.54685936 C76.4980195,6.49402416 75.8589187,6.13279056 74.5159459,6.13279056 C73.9013059,6.13279056 72.6943027,6.52659696 71.9450035,7.09156656 C71.6447347,7.31795376 71.2176691,7.25817456 70.9912195,6.95784336 C70.7648323,6.65757456 70.8246739,6.23057136 71.1249427,6.00412176 C72.0420979,5.31260496 73.5315235,4.77084816 74.5159459,4.77084816 C75.6657907,4.77084816 76.4607043,5.05208496 77.0176867,5.65599216 C77.5923907,6.27911856 77.8600867,7.19770896 77.8600867,8.54685936 L77.8600867,14.0609602 C77.8600867,14.437045 77.5551379,14.7419314 77.1790531,14.7419314" id="Fill-17" fill="#ED5526"></path>
                <path d="M71.5349856,14.8580827 C71.1589008,14.8580827 70.853952,14.5531963 70.853952,14.1771115 L70.853952,5.60116752 C70.853952,5.22508272 71.1589008,4.92019632 71.5349856,4.92019632 C71.9110704,4.92019632 72.2160192,5.22508272 72.2160192,5.60116752 L72.2160192,14.1771115 C72.2160192,14.5531963 71.9110704,14.8580827 71.5349856,14.8580827" id="Fill-19" fill="#ED5526"></path>
                <path d="M30.1675358,14.7419314 C29.791451,14.7419314 29.4865022,14.437045 29.4865022,14.0609602 L29.4865022,8.54685936 C29.4865022,6.57002736 28.724099,6.19525296 27.3171038,6.19525296 C26.642123,6.19525296 25.5554894,6.47374416 24.8710862,6.98991696 C24.570755,7.21630416 24.1437518,7.15646256 23.9173022,6.85613136 C23.6908526,6.55586256 23.7507566,6.12885936 24.0510254,5.90240976 C25.0251518,5.16783696 26.4269054,4.83331056 27.3171038,4.83331056 C29.6934206,4.83331056 30.8485694,6.04798896 30.8485694,8.54685936 L30.8485694,14.0609602 C30.8485694,14.437045 30.5436206,14.7419314 30.1675358,14.7419314" id="Fill-21" fill="#ED5526"></path>
                <path d="M24.4610434,14.8580827 C24.0849586,14.8580827 23.7800098,14.5531963 23.7800098,14.1771115 L23.7800098,5.60116752 C23.7800098,5.22508272 24.0849586,4.92019632 24.4610434,4.92019632 C24.8371282,4.92019632 25.142077,5.22508272 25.142077,5.60116752 L25.142077,14.1771115 C25.142077,14.5531963 24.8371282,14.8580827 24.4610434,14.8580827" id="Fill-23" fill="#ED5526"></path>
                <path d="M83.5998821,14.8580827 C81.2331749,14.8580827 80.1308789,13.6780987 80.1308789,11.1445339 L80.1308789,5.63043312 C80.1308789,5.25434832 80.4357653,4.94946192 80.8119125,4.94946192 C81.1879973,4.94946192 81.4928837,5.25434832 81.4928837,5.63043312 L81.4928837,11.1445339 C81.4928837,13.1324107 82.2024341,13.4961403 83.5998821,13.4961403 C84.2285621,13.4961403 85.2166661,13.0950955 85.9494293,12.5425435 C86.2497605,12.3161563 86.6767637,12.3759355 86.9031509,12.6762667 C87.1296005,12.9765355 87.0697589,13.4035387 86.7694277,13.6299883 C85.7953013,14.3645611 84.5215925,14.8580827 83.5998821,14.8580827" id="Fill-25" fill="#ED5526"></path>
                <path d="M86.3935301,14.7711845 C86.0174453,14.7711845 85.7124965,14.4662981 85.7124965,14.0902133 L85.7124965,5.51426928 C85.7124965,5.13818448 86.0174453,4.83329808 86.3935301,4.83329808 C86.7696149,4.83329808 87.0745637,5.13818448 87.0745637,5.51426928 L87.0745637,14.0902133 C87.0745637,14.4662981 86.7696149,14.7711845 86.3935301,14.7711845" id="Fill-27" fill="#ED5526"></path>
                <path d="M10.0226318,14.8503389 C9.64654704,14.8503389 9.34159824,14.5454525 9.34159824,14.1693677 L9.34159824,10.2450941 C9.34159824,9.08950848 9.55325904,8.05516608 9.97065264,7.17070848 C10.3870478,6.28837248 11.0001902,5.59111488 11.697011,5.20754208 C12.281075,4.88605728 12.9717806,4.78116288 13.641707,4.91195328 C14.010803,4.98408768 14.2516046,5.34176448 14.1794702,5.71092288 C14.1073982,6.08008128 13.7498462,6.32082048 13.380563,6.24868608 C13.0231982,6.17886048 12.6586574,6.23289888 12.3538334,6.40069248 C12.1451678,6.51557088 11.6152046,6.87724128 11.2023662,7.75196448 C10.871459,8.45321568 10.7036654,9.29205888 10.7036654,10.2450941 L10.7036654,14.1693677 C10.7036654,14.5454525 10.3987166,14.8503389 10.0226318,14.8503389" id="Fill-29" fill="#ED5526"></path>
                <path d="M10.0226318,14.8503389 C9.64654704,14.8503389 9.34159824,14.5454525 9.34159824,14.1693677 L9.34159824,5.59529568 C9.34159824,5.21914848 9.64654704,4.91432448 10.0226318,4.91432448 C10.3987166,4.91432448 10.7036654,5.21914848 10.7036654,5.59529568 L10.7036654,14.1693677 C10.7036654,14.5454525 10.3987166,14.8503389 10.0226318,14.8503389" id="Fill-31" fill="#ED5526"></path>
                <g id="Group-35" transform="translate(97.968000, 0.043930)">
                    <mask id="mask-2" fill="white">
                        <use xlink:href="#path-1"></use>
                    </mask>
                    <g id="Clip-34"></g>
                    <path d="M2.37296592,14.7196358 C2.32803792,14.7196358 2.28404592,14.7190742 2.24098992,14.7178886 C0.19277232,14.6599814 0.02310672,12.979175 0.02310672,11.1121046 L0.02310672,0.69941664 C0.02310672,0.32333184 0.32805552,0.01844544 0.70414032,0.01844544 C1.08022512,0.01844544 1.38511152,0.32333184 1.38511152,0.69941664 L1.38511152,11.1121046 C1.38511152,11.768615 1.41050832,12.6884534 1.63015632,13.0947398 C1.69280592,13.2104918 1.76375472,13.3418438 2.27936592,13.356383 C2.30987952,13.3572566 2.34107952,13.3576934 2.37296592,13.3576934 C2.74905072,13.3576934 3.05399952,13.6625798 3.05399952,14.0386646 C3.05399952,14.4147494 2.74905072,14.7196358 2.37296592,14.7196358" id="Fill-33" fill="#ED5526" mask="url(#mask-2)"></path>
                </g>
                <g id="Group-38" transform="translate(38.563200, 0.043930)">
                    <mask id="mask-4" fill="white">
                        <use xlink:href="#path-3"></use>
                    </mask>
                    <g id="Clip-37"></g>
                    <path d="M1.5457416,14.7687509 C1.4527656,14.7687509 1.358292,14.7495941 1.2678744,14.7091589 C0.1257672,14.1979157 0.0311688,12.8044613 0.0311688,11.2993733 L0.0311688,0.69942288 C0.0311688,0.32333808 0.3360552,0.01845168 0.71214,0.01845168 C1.0882248,0.01845168 1.3931736,0.32333808 1.3931736,0.69942288 L1.3931736,11.2993733 C1.3931736,12.6643109 1.526148,13.3324901 1.8243576,13.4660261 C2.16762,13.6197173 2.3213736,14.0225717 2.1676824,14.3658341 C2.0544888,14.6187413 1.806012,14.7687509 1.5457416,14.7687509" id="Fill-36" fill="#ED5526" mask="url(#mask-4)"></path>
                </g>
                <g id="Group-41" transform="translate(0.000000, 0.168730)">
                    <mask id="mask-6" fill="white">
                        <use xlink:href="#path-5"></use>
                    </mask>
                    <g id="Clip-40"></g>
                    <path d="M1.36201104,12.8880398 C1.70733264,13.0766126 2.39335824,13.3644638 3.36467664,13.3644638 L3.37029264,13.3644638 C4.20071184,13.3634654 4.90751664,13.0031054 5.41426704,12.322259 C5.92569744,11.6351102 6.20730864,10.6657886 6.20730864,9.59269584 C6.20730864,8.47604784 5.93424624,7.55415024 5.41769904,6.92659344 C4.92891984,6.33273264 4.25406384,6.03165264 3.41197584,6.03165264 C2.60657904,6.03165264 1.62053424,6.49041744 1.36201104,6.64560624 L1.36201104,12.8880398 Z M3.36480144,14.7264062 C1.44394224,14.7264062 0.30270864,13.8290318 0.25497264,13.790843 C0.09379344,13.6615502 6.24e-06,13.4661134 6.24e-06,13.259507 L6.24e-06,0.69951024 C6.24e-06,0.32342544 0.30489264,0.01853904 0.68097744,0.01853904 C1.05712464,0.01853904 1.36201104,0.32342544 1.36201104,0.69951024 L1.36201104,5.13652464 C1.91225424,4.90726704 2.67116304,4.66971024 3.41197584,4.66971024 C4.66284624,4.66971024 5.72002704,5.15081424 6.46926384,6.06098064 C7.18892304,6.93526704 7.56931344,8.15649744 7.56931344,9.59269584 C7.56931344,10.9567598 7.19198064,12.214931 6.50682864,13.1354558 C5.74430064,14.159939 4.63095984,14.7249086 3.37185264,14.7264062 L3.36480144,14.7264062 Z" id="Fill-39" fill="#ED5526" mask="url(#mask-6)"></path>
                </g>
                <path d="M36.5900746,14.7702048 L36.584521,14.7702048 C35.3254138,14.768832 34.212073,14.2038 33.4494826,13.1793168 C32.7643306,12.258792 32.3870602,11.0006208 32.3870602,9.6365568 C32.3870602,8.2077216 32.8181194,6.9777552 33.633625,6.0797568 C34.4337178,5.1987312 35.556169,4.7135712 36.7941226,4.7135712 C38.034385,4.7135712 39.3253786,5.3794416 39.6032458,5.5577184 C39.9197386,5.7608928 40.0116538,6.1821552 39.8084794,6.498648 C39.605305,6.8152032 39.1839802,6.907056 38.8675498,6.703944 C38.6516458,6.565416 37.6263514,6.0755136 36.7941226,6.0755136 C34.9727914,6.0755136 33.749065,7.5066576 33.749065,9.6365568 C33.749065,10.7096496 34.0306762,11.6789712 34.5421066,12.36612 C35.048857,13.046904 35.7555994,13.407264 36.5860186,13.4082624 L36.5900122,13.4082624 C37.582297,13.4082624 38.2803658,12.9828192 38.5943626,12.7437024 L38.5943626,11.5450608 C38.5943626,11.168976 38.899249,10.8640896 39.2753338,10.8640896 C39.651481,10.8640896 39.9563674,11.168976 39.9563674,11.5450608 L39.9563674,13.0535808 C39.9563674,13.2278016 39.8895994,13.395408 39.7697914,13.5218304 C39.7214938,13.5728736 38.564785,14.7702048 36.5900746,14.7702048" id="Fill-42" fill="#ED5526"></path>
                <path d="M59.3424936,14.679469 C58.9664088,14.679469 58.66146,14.3745826 58.66146,13.9984978 L58.66146,8.48439696 C58.66146,6.47237136 58.0500648,6.13279056 56.6793864,6.13279056 C56.0485224,6.13279056 55.0861272,6.37852176 54.3582312,6.92745456 C54.0579,7.15384176 53.6308968,7.09400016 53.4044472,6.79366896 C53.1779976,6.49340016 53.2378392,6.06639696 53.5381704,5.83994736 C54.3994776,5.19048816 55.6324392,4.77084816 56.6793864,4.77084816 C58.9921176,4.77084816 60.0235272,5.91613776 60.0235272,8.48439696 L60.0235272,13.9984978 C60.0235272,14.3745826 59.7185784,14.679469 59.3424936,14.679469" id="Fill-44" fill="#ED5526"></path>
            </g>
        </g>
    </g>
</svg>