<svg width="400" height="79" viewBox="0 0 400 79" fill="none" xmlns="http://www.w3.org/2000/svg">
<g clip-path="url(#clip0)">
<path d="M72.9655 22.9894C72.0474 23.3719 71.6075 24.443 71.9901 25.3801C73.8453 29.76 74.7824 34.4267 74.7824 39.2273C74.7824 42.1727 74.419 45.0225 73.7305 47.7766C73.195 49.4979 72.2387 51.1045 70.9381 52.5581C70.9764 51.9461 70.9955 51.3149 70.9955 50.6838C71.0146 43.6837 69.0638 36.301 65.4872 29.3583C68.1266 27.1015 69.7906 24.3091 70.3644 21.1915C70.5556 20.197 69.8862 19.2598 68.9108 19.0686C67.9354 18.8773 66.9599 19.5467 66.7878 20.5413C66.4053 22.6069 65.3342 24.5003 63.6511 26.1069C63.1347 25.2462 62.5801 24.3856 62.0063 23.544C58.8123 18.8582 55.0062 14.7844 50.8368 11.5521C56.3259 11.9155 61.4134 13.2543 65.5064 15.5303C66.1566 15.8937 66.9982 15.8937 67.5911 15.3773C68.3753 14.727 68.4709 13.5794 67.8206 12.8144C61.9681 4.53285 51.8122 0 39.2082 0C17.5959 0 0.0191259 17.5767 0 39.1699V39.2656C0 42.976 0.535527 46.5526 1.51095 49.957C1.56833 50.1865 1.62571 50.416 1.68308 50.6455C1.70221 50.6838 1.72134 50.722 1.74046 50.7794C6.69408 66.7687 21.6123 78.4355 39.2082 78.4355C47.3558 78.4355 54.9106 75.9491 61.1839 71.684C61.2413 71.6458 61.3178 71.6075 61.3752 71.5693C61.7385 71.3206 62.1019 71.0529 62.4653 70.766C69.6758 65.4299 75.012 57.6838 77.2497 48.7329C77.3836 48.3121 77.4792 47.9105 77.5748 47.4706C77.594 47.375 77.594 47.2793 77.6131 47.1837C78.1486 44.6017 78.4355 41.9432 78.4355 39.2082C78.4355 33.9103 77.4027 28.7845 75.3562 23.9457C74.9546 23.0276 73.8835 22.5877 72.9655 22.9894ZM59.0035 25.5331C59.5964 26.4129 60.1702 27.3118 60.7057 28.2299C57.7986 29.913 54.1073 30.9267 50.1291 31.1944C49.7848 24.902 49.0389 18.8391 47.8722 13.8089C52.0226 16.9073 55.8286 20.8855 59.0035 25.5331ZM53.5909 6.21593C55.427 6.94272 57.2248 7.87989 58.9462 9.0657C56.192 8.37716 53.2466 7.95639 50.2056 7.80339C51.487 7.01922 52.6346 6.44544 53.5909 6.21593ZM48.7712 4.70498C47.7575 5.24051 46.7056 5.92904 45.6345 6.75146C45.1564 5.68041 44.64 4.72411 44.0853 3.90169C45.558 4.07383 47.1455 4.34159 48.7712 4.70498ZM31.4239 31.3474C34.0442 32.5141 36.8939 33.4513 39.8776 34.1016C42.1536 34.5988 44.4296 34.8475 46.6482 34.924C46.6864 36.301 46.7056 37.6972 46.7056 39.1508C46.7056 47.7384 46.017 54.8723 45.0225 60.438C41.7519 60.3041 38.4049 59.8642 35.0196 59.1565C30.5059 58.1811 26.2408 56.7467 22.3774 54.9297C23.6397 49.2111 26.0113 42.3066 29.76 34.618C30.2955 33.5087 30.8501 32.4185 31.4239 31.3474ZM25.055 22.932C23.544 21.5167 22.3965 20.044 21.6314 18.5713C25.055 16.5057 28.8228 14.8417 32.8584 13.6177C35.2491 12.8909 37.6781 12.3554 40.1071 11.992C36.6071 15.9128 33.1261 20.8855 29.9321 26.4894C28.096 25.4375 26.4703 24.2326 25.055 22.932ZM46.4952 31.2709C44.5634 31.1944 42.5935 30.9458 40.6426 30.525C38.0033 29.9704 35.4978 29.1479 33.1835 28.1343C36.5879 22.1861 40.3175 17.003 43.9897 13.1586C45.1372 17.6724 46.0935 23.7353 46.4952 31.2709ZM39.1699 3.65306C39.8011 3.67218 40.547 4.39897 41.3503 5.85254C40.9486 5.68041 40.547 5.50827 40.1262 5.35526C38.4814 4.72411 36.8366 4.22683 35.23 3.88257C36.5306 3.72956 37.8311 3.65306 39.1699 3.65306ZM20.6369 12.6231C21.0385 10.7297 22.1861 9.04657 23.9457 7.65038C28.1916 6.38807 33.1644 6.67495 38.3666 8.58755C36.1672 8.97007 33.9868 9.46734 31.8256 10.1176C27.8091 11.3226 24.0031 12.9674 20.5221 14.9756C20.4265 14.1915 20.4839 13.4073 20.6369 12.6231ZM17.2133 11.3034C17.156 11.4947 17.1177 11.686 17.0795 11.8772C16.697 13.5794 16.7543 15.339 17.1751 17.0986C13.2543 19.8145 9.83074 23.0085 7.11485 26.6042C6.29244 27.6944 5.54652 28.8228 4.87712 29.9321C6.90447 22.473 11.3034 15.9702 17.2133 11.3034ZM17.7871 67.5911C11.7051 62.9817 7.1531 56.4789 5.011 48.9433C4.70498 47.7575 4.51372 46.5526 4.41809 45.3285C5.64215 47.0498 7.11485 48.752 8.89356 50.3969C11.5521 52.8641 14.727 55.0636 18.2653 56.9571C17.5385 60.9926 17.3472 64.6457 17.7871 67.5911ZM11.3799 47.7192C8.28153 44.8503 6.15855 41.8284 5.06838 38.8065C5.92904 35.4213 7.593 32.036 10.0411 28.8037C12.3745 25.7244 15.2625 22.9511 18.5713 20.5795C19.5276 22.3009 20.8664 24.0031 22.5686 25.5905C24.1943 27.1015 26.0878 28.4785 28.1725 29.6835C27.5987 30.7736 27.025 31.883 26.4703 33.0305C23.238 39.6672 20.5986 46.7821 19.0494 53.2275C16.1805 51.6018 13.5794 49.7466 11.3799 47.7192ZM39.2464 74.7442C39.1508 74.7442 39.0743 74.7633 38.9978 74.7633C33.566 74.7251 28.4212 73.4819 23.8309 71.2633C23.7162 71.1676 23.6014 71.0911 23.4867 71.0338C21.4593 70.0392 20.6369 65.5255 21.6888 58.621C25.5714 60.3806 29.8173 61.7577 34.2737 62.714C37.659 63.4408 41.0252 63.8807 44.2957 64.0528C42.6891 71.072 40.6235 74.7442 39.2464 74.7442ZM60.2659 67.8588C55.7139 71.2059 50.3586 73.501 44.5252 74.3808C45.9788 71.8562 47.1646 68.2987 48.0635 64.1293C53.2084 64.0719 58.1046 63.3069 62.4271 61.8533C63.5173 61.4899 64.5501 61.0883 65.5446 60.6484C64.3397 63.5938 62.561 66.0419 60.2659 67.8588ZM66.9026 55.8095C65.2577 56.8232 63.3834 57.6838 61.2604 58.3915C57.4926 59.6538 53.2466 60.3424 48.752 60.4571C49.8422 53.9734 50.3586 46.4378 50.3586 39.1317C50.3586 37.7164 50.3395 36.2819 50.3012 34.8475C54.8341 34.5415 59.0418 33.3748 62.4845 31.3857C65.6594 37.6972 67.3807 44.3339 67.3616 50.6072C67.3616 52.4625 67.1894 54.1838 66.9026 55.8095Z" fill="#D4D4D4"/>
<path d="M391.011 27.7518C396.806 27.7518 400 30.5633 400 35.6508C400 40.4514 396.863 43.3203 391.585 43.3203H387.893V50.6647H383.016V27.7518H391.011ZM387.912 39.3421H390.839C393.669 39.3421 395.104 38.0989 395.104 35.6508C395.104 33.1644 393.535 31.8065 390.667 31.8065H387.912V39.3421ZM374.027 41.5034C374.027 44.8695 372.726 46.5144 370.087 46.5144C367.409 46.5144 366.051 44.8313 366.051 41.5034V27.7518H361.174V41.1782C361.155 44.4488 361.978 46.9543 363.603 48.58C365.114 50.0909 367.295 50.8751 370.106 50.8751C374.142 50.8751 378.942 49.192 378.942 41.1782V27.7518H374.065V41.5034H374.027ZM347.844 27.5605C352.797 27.5605 358.095 30.6398 358.095 39.2465C358.095 47.8149 352.797 50.8751 347.844 50.8751C342.871 50.8751 337.573 47.8149 337.573 39.2465C337.554 30.6207 342.871 27.5605 347.844 27.5605ZM347.844 46.5909C349.775 46.5909 353.046 45.6346 353.046 39.2465C353.046 32.8584 349.794 31.9021 347.844 31.9021C344.477 31.9021 342.622 34.5033 342.622 39.2465C342.603 43.9897 344.458 46.5909 347.844 46.5909ZM332.524 43.722C333.327 45.3668 334.035 46.7821 335.641 46.7821H336.808V50.5499L336.636 50.5882C336.597 50.6073 335.756 50.8177 334.264 50.8177C330.401 50.8177 329.215 48.1592 328.182 45.8258C327.321 43.9132 326.595 42.2493 324.567 42.2493H322.425V50.6647H317.548V27.7518H325.677C331.606 27.7518 334.379 30.066 334.379 35.0388C334.379 38.1181 332.543 40.0115 330.688 40.834C331.472 41.6181 332.007 42.6892 332.524 43.722ZM322.406 38.4815H325.141C327.857 38.4815 329.54 37.2191 329.54 35.1727C329.54 33.0306 328.067 31.8065 325.504 31.8065H322.425V38.4815H322.406ZM304.523 42.3067H309.573V42.5553C309.573 44.0471 309.037 46.5335 305.537 46.5335C302.228 46.5335 300.239 43.8176 300.239 39.2465C300.239 34.5798 302.133 31.9021 305.441 31.9021C309.362 31.9021 309.515 35.8803 309.515 36.0525V36.3202L314.067 35.6126V35.4213C314.067 33.7765 312.594 27.5797 305.365 27.5797C298.9 27.5797 295.19 31.8448 295.19 39.2656C295.19 46.5526 299.015 50.8942 305.441 50.8942C311.887 50.8942 314.182 46.3996 314.182 42.5553V38.5771H304.542V42.3067H304.523ZM289.892 27.7518H284.078L276.485 38.0798V27.7518H271.531V50.6838H276.485V40.1263L284.269 50.6838H290.141L281.266 39.1126L289.892 27.7518ZM262.274 41.9241L254.26 27.7518H249.307V50.6838H254.184V37.0088L262.178 50.6838H267.17V27.7518H262.293V41.9241H262.274ZM239.629 27.9048L247.987 50.6838H242.899L240.949 45.0608H233.317L231.424 50.6838H226.317L234.733 27.7518H239.572L239.629 27.9048ZM237.143 34.006L234.675 41.2356H239.686L237.143 34.006ZM221.784 38.5962C223.544 39.0935 225.858 40.7192 225.858 44.1619C225.858 48.3122 222.913 50.6838 217.806 50.6838H208.148V27.7518H216.888C221.861 27.7518 224.366 29.8365 224.366 33.9104C224.347 37.0853 222.894 38.1946 221.784 38.5962ZM216.334 37.1235C218.361 37.1235 219.317 36.2629 219.317 34.4268C219.317 32.6863 218.112 31.7874 215.722 31.7874H212.987V37.1044H216.334V37.1235ZM213.006 46.6291H216.831C219.336 46.6291 220.484 45.6919 220.484 43.6837C220.484 41.2165 218.437 40.7001 216.735 40.7001H213.006V46.6291ZM187.989 27.7518C195.123 27.7518 199.388 32.189 199.388 39.6099C199.388 46.6482 195.582 50.6838 188.945 50.6838H181.18V27.7518H187.989ZM186.076 46.6291H188.926C192.445 46.6291 194.549 43.9706 194.549 39.5334C194.549 34.4076 192.331 31.8065 187.932 31.8065H186.076V46.6291ZM168.997 27.7518H164.101V50.6838H178.904V46.6291H168.978V27.7518H168.997ZM157.521 43.722C158.325 45.3668 159.032 46.7821 160.639 46.7821H161.786V50.5499L161.614 50.5882C161.576 50.6073 160.734 50.8177 159.243 50.8177C155.379 50.8177 154.193 48.1592 153.161 45.8258C152.3 43.9132 151.554 42.2493 149.546 42.2493H147.404V50.6647H142.527V27.7518H150.655C156.584 27.7518 159.357 30.066 159.357 35.0388C159.357 38.1181 157.521 40.0115 155.666 40.834C156.488 41.6181 157.005 42.6892 157.521 43.722ZM147.423 38.4815H150.158C152.874 38.4815 154.557 37.2191 154.557 35.1727C154.557 33.0306 153.084 31.8065 150.521 31.8065H147.442V38.4815H147.423ZM129.502 27.5605C134.455 27.5605 139.753 30.6398 139.753 39.2465C139.753 47.8149 134.455 50.8751 129.502 50.8751C124.529 50.8751 119.231 47.8149 119.231 39.2465C119.231 30.6207 124.529 27.5605 129.502 27.5605ZM129.502 46.5909C131.433 46.5909 134.704 45.6346 134.704 39.2465C134.704 32.8584 131.453 31.9021 129.502 31.9021C126.136 31.9021 124.28 34.5033 124.28 39.2465C124.28 43.9897 126.136 46.5909 129.502 46.5909ZM113.015 27.7518H118.543L111.944 50.6838H106.436L102.439 36.3011L98.3647 50.6838H92.8565L86.2771 27.7518H91.9575L95.8019 44.487L100.43 27.7518H104.542L109.018 44.487L113.015 27.7518Z" fill="#D4D4D4"/>
</g>
<defs>
<clipPath id="clip0">
<rect width="400" height="78.4355" fill="white"/>
</clipPath>
</defs>
</svg>
