<?xml version="1.0" encoding="UTF-8"?>
<svg version="1.1" viewBox="0 0 14 17" xmlns="http://www.w3.org/2000/svg">
<title>stopwatch</title>
<desc>Created with Sketch.</desc>
<g fill="none" fill-rule="evenodd">
<g transform="translate(-1103 -31)" fill="#F9583E">
<g transform="translate(1103 31)">
<g transform="translate(0 .60714)">
<path d="m8.6644 1.9579-2.2175 0.035821c-0.34817 0.0054643-0.63487-0.272-0.64035-0.61868l-0.010957-0.70064c-0.006087-0.34729 0.27148-0.63325 0.61965-0.63871l2.2175-0.035821c0.34817-0.0054643 0.63487 0.27139 0.64035 0.61868l0.011565 0.70064c0.0054783 0.34729-0.27209 0.63325-0.62026 0.63871"/>
<path d="m2.633 3.52-1.4006 1.1809c-0.21974 0.18518-0.54843 0.15786-0.73409-0.061321l-0.37557-0.442c-0.18565-0.21979-0.15765-0.54764 0.062087-0.73282l1.4-1.1809c0.22035-0.18518 0.54904-0.15786 0.7347 0.061321l0.37496 0.442c0.18565 0.21979 0.15826 0.54764-0.061478 0.73282"/>
<path d="m10.266 10.765c-0.10713 0.21311-0.32139 0.33575-0.54539 0.33575-0.091304 0-0.18383-0.020643-0.27148-0.064357l-2.4348-1.2143c-0.20635-0.10261-0.33661-0.31268-0.33661-0.54279v-3.6429c0-0.33575 0.2727-0.60714 0.6087-0.60714 0.33661 0 0.6087 0.27139 0.6087 0.60714v3.2676l2.0988 1.0461c0.3007 0.14996 0.42243 0.51486 0.27209 0.81479m-2.9796-8.1643c-3.6917 0-6.6957 2.9956-6.6957 6.6786 0 3.6823 3.0039 6.6786 6.6957 6.6786 3.6923 0 6.6957-2.9962 6.6957-6.6786 0-3.6829-3.0033-6.6786-6.6957-6.6786"/>
</g>
</g>
</g>
</g>
</svg>
