<?xml version="1.0" encoding="UTF-8"?>
<svg version="1.1" viewBox="0 0 745 151" xmlns="http://www.w3.org/2000/svg">
<title>Logo</title>
<desc>Global Hack logo</desc>
<g fill="none" fill-rule="evenodd">
<g transform="translate(0 -2)">
<g transform="translate(0 1)">
<g transform="translate(0 .465)">
<g transform="translate(182 33)" fill="#ffffff">
<path d="m132.18 67.337c4.213 0 7.668-1.404 10.477-4.213 2.807-2.808 4.211-6.372 4.211-10.691 0-4.321-1.404-7.885-4.211-10.693-2.809-2.808-6.264-4.212-10.477-4.212-4.212 0-7.668 1.404-10.476 4.212-2.7 2.808-4.104 6.372-4.104 10.693 0 4.319 1.404 7.883 4.104 10.691 2.808 2.809 6.264 4.213 10.476 4.213m0 13.607c-7.992 0-14.796-2.7-20.304-8.208-5.508-5.507-8.208-12.311-8.208-20.303s2.7-14.689 8.208-20.197 12.312-8.316 20.304-8.316 14.797 2.808 20.305 8.316c5.507 5.508 8.316 12.205 8.316 20.197s-2.809 14.796-8.316 20.303c-5.508 5.508-12.313 8.208-20.305 8.208"/>
<path id="a" d="m484.9 23.92c10.477 0 19.765 5.399 24.192 13.931l-11.988 7.021c-2.159-4.428-6.804-7.237-12.311-7.237-8.317 0-14.473 6.157-14.473 14.797 0 4.212 1.404 7.776 4.105 10.584 2.7 2.7 6.156 4.104 10.368 4.104 5.616 0 10.259-2.7 12.42-7.128l12.096 6.912c-4.753 8.532-13.932 14.04-24.409 14.04-8.099 0-14.904-2.7-20.412-8.208-5.4-5.508-8.1-12.204-8.1-20.304s2.7-14.797 8.1-20.304c5.508-5.508 12.313-8.208 20.412-8.208zm-444.41-21.601c14.148 0 26.46 6.912 32.941 17.605l-12.744 7.343c-3.565-6.155-11.341-10.475-20.305-10.475-7.236 0-13.177 2.376-17.82 7.128-4.645 4.643-6.912 10.584-6.912 17.82 0 7.128 2.376 13.068 7.02 17.712 4.752 4.644 11.016 6.912 18.792 6.912 11.556 0 19.332-5.4 22.032-14.364h-22.896v-13.176h37.908v5.832c0 10.8-3.455 19.548-10.367 26.244s-15.877 10.044-26.785 10.044c-11.664 0-21.384-3.779-29.052-11.34-7.669-7.668-11.448-16.956-11.448-27.864 0-11.017 3.779-20.305 11.339-27.973 7.668-7.668 17.065-11.448 28.297-11.448zm139.75 1.5129v27.972c4.103-5.292 9.935-7.884 17.496-7.884 7.236 0 13.5 2.807 18.576 8.316 5.184 5.508 7.776 12.204 7.776 20.196 0 7.993-2.592 14.796-7.776 20.304-5.076 5.508-11.34 8.208-18.576 8.208-7.561 0-13.393-2.592-17.496-7.884v6.372h-13.933v-75.6h13.933zm72.79 20.088c7.56 0 13.392 2.592 17.605 7.884v-6.373h13.931v54.001h-13.931v-6.372c-4.213 5.292-10.045 7.884-17.605 7.884-7.236 0-13.392-2.7-18.576-8.208-5.076-5.508-7.668-12.311-7.668-20.304 0-7.992 2.592-14.688 7.668-20.196 5.184-5.509 11.34-8.316 18.576-8.316zm166.32 0c7.56 0 13.392 2.592 17.605 7.884v-6.373h13.931v54.001h-13.931v-6.372c-4.213 5.292-10.045 7.884-17.605 7.884-7.236 0-13.392-2.7-18.576-8.208-5.076-5.508-7.668-12.311-7.668-20.304 0-7.992 2.592-14.688 7.668-20.196 5.184-5.509 11.34-8.316 18.576-8.316zm-321.3-23.328v78.841h-13.933v-78.841h13.933zm208.76 0v78.841h-13.933v-78.841h13.933zm45.035 3.2402v27.647c3.348-5.075 8.748-7.559 16.092-7.559 5.94 0 10.8 1.944 14.58 5.939 3.889 3.996 5.832 9.396 5.832 16.417v33.156h-13.932v-31.428c0-7.237-4.212-11.124-10.692-11.124-7.236 0-11.88 4.427-11.88 13.392v29.16h-13.932v-75.6h13.932zm174.42-8e-4v45.361l18.576-23.761h16.632l-21.708 26.677 22.356 27.324h-16.2l-19.656-24.517v24.517h-13.933v-75.601h13.933zm-331.12 33.372c-4.32 0-7.885 1.404-10.692 4.32-2.809 2.808-4.212 6.48-4.212 10.908s1.403 8.1 4.212 11.016c2.807 2.809 6.372 4.212 10.692 4.212 4.319 0 7.884-1.403 10.691-4.212 2.916-2.916 4.321-6.588 4.321-11.016s-1.405-8.1-4.321-10.908c-2.807-2.916-6.372-4.32-10.691-4.32zm60.478 0c-4.32 0-7.884 1.404-10.692 4.32-2.808 2.808-4.212 6.48-4.212 10.908s1.404 8.1 4.212 11.016c2.808 2.809 6.372 4.212 10.692 4.212s7.884-1.403 10.692-4.212c2.916-2.916 4.321-6.588 4.321-11.016s-1.405-8.1-4.321-10.908c-2.808-2.916-6.372-4.32-10.692-4.32zm166.32 0c-4.32 0-7.884 1.404-10.692 4.32-2.808 2.808-4.212 6.48-4.212 10.908s1.404 8.1 4.212 11.016c2.808 2.809 6.372 4.212 10.692 4.212s7.884-1.403 10.692-4.212c2.916-2.916 4.321-6.588 4.321-11.016s-1.405-8.1-4.321-10.908c-2.808-2.916-6.372-4.32-10.692-4.32z"/>
</g>
<path d="m81.869 151h-13.274l6.637-75.233-29.561-69.499 12.625-4.103 16.935 73.6-6.6367-75.23h13.274l-6.6373 75.229 16.937-73.599 12.624 4.103-29.561 69.497 3e-4 2e-3 6.637 75.233zm-6.6367-75.233 29.56 69.5-12.624 4.102-16.936-73.602zm0 0-16.936 73.602-12.625-4.102 29.561-69.5zm0 0 49.59 56.964-10.739 7.802-38.851-64.766zm0 0-38.851 64.766-10.739-7.802 49.59-56.964zm0 0 64.765 38.852-7.802 10.738-56.963-49.59zm0 0-56.963 49.59-7.803-10.738 64.766-38.852zm0 0 73.601 16.937-4.102 12.624-69.499-29.561zm0 0-69.5 29.561-4.102-12.624 73.602-16.937zm75.232-6.637v13.274l-75.232-6.637 75.232-6.637zm-114.08-58.129 38.849 64.765 0.0016 0.0011-0.0036-0.0011-75.229 6.6375v-13.273l75.225 6.6345-73.594-16.934 4.102-12.625 69.496 29.56h1e-3l-64.763-38.85 7.803-10.739 56.961 49.589-49.588-56.962 10.739-7.803zm77.702 0 10.739 7.803-49.59 56.963 38.851-64.766zm18.112 15.176 7.802 10.739-64.765 38.851 56.963-49.59zm12.536 20.029 4.102 12.625-73.601 16.936 69.499-29.561z" fill="#FFAE41"/>
</g>
</g>
</g>
</g>
</svg>
